<svg width="24" height="24" viewBox="0 0 24 24" fill="none" xmlns="http://www.w3.org/2000/svg">
<path d="M16.9998 6L16.9998 9C16.9998 7.8 17.9998 7.5 18.5198 7.5C19.3588 7.5 19.9998 8.172 19.9998 9C19.9998 9 20.2113 13.5 19.7112 16.5C19.2111 19.5 16.8659 22 12.9999 22C7.65529 22 5.66006 17.4197 3.23286 13.395C2.69686 12.527 2.99977 11.3795 4.11386 11.081C5.91263 10.4959 7.06933 12.9531 7.99986 14.033M16.9998 6C16.9998 5.172 16.3588 4.5 15.5198 4.5C15.0128 4.5 13.9998 4.8 13.9998 6M16.9998 6V11M13.9998 6V3.5C13.9998 2.672 13.3588 2 12.5198 2C11.6798 2 10.9998 2.672 10.9998 3.5V5.5M13.9998 6V11M10.9998 5.5C10.9998 4.3 10.0068 4 9.49984 4C8.65984 4 7.99984 4.691 7.99984 5.52V14M10.9998 5.5V11" stroke="currentColor" stroke-width="1.5" stroke-linecap="round" stroke-linejoin="round"></path>
</svg>